<svg xmlns="http://www.w3.org/2000/svg" viewBox="0 0 100 100" width="80" height="80">
  <defs>
    <radialGradient id="g" cx="50%" cy="50%"><stop offset="0%" stop-color="#ffe066"/><stop offset="100%" stop-color="#f15bb5"/></radialGradient>
  </defs>
  <ellipse cx="50" cy="65" rx="36" ry="28" fill="url(#g)"/>
  <ellipse cx="50" cy="38" rx="28" ry="26" fill="#8338ec"/>
  <polygon points="22,26 30,6 42,24" fill="#3a86ff"/>
  <polygon points="78,26 70,6 58,24" fill="#3a86ff"/>
  <polygon points="50,8 54,22 46,22" fill="#ffbe0b"/>
  <circle cx="42" cy="38" r="5" fill="#fff"/>
  <circle cx="58" cy="38" r="5" fill="#fff"/>
  <circle cx="42" cy="38" r="3" fill="#000"/>
  <circle cx="58" cy="38" r="3" fill="#000"/>
  <circle cx="43" cy="37" r="1.5" fill="#fff"/>
  <circle cx="59" cy="37" r="1.5" fill="#fff"/>
  <path d="M42 52 Q50 60 58 52" stroke="#fff" stroke-width="3" fill="none" stroke-linecap="round"/>
  <path d="M14 58 L4 40 L8 52 L2 60 Z" fill="#3a86ff"/>
  <path d="M86 58 L96 40 L92 52 L98 60 Z" fill="#3a86ff"/>
  <circle cx="36" cy="48" r="2.5" fill="#ffbe0b"/>
  <circle cx="64" cy="48" r="2.5" fill="#ffbe0b"/>
  <text x="50" y="92" text-anchor="middle" font-size="9" fill="#666">tatsu-ō</text>
</svg>
