<?xml version="1.0" encoding="UTF-8"?>
<!--
Copyright (C) 2009/2010/2011 Ulrich Apel.
This work is distributed under the conditions of the Creative Commons
Attribution-Share Alike 3.0 Licence. This means you are free:
* to Share - to copy, distribute and transmit the work
* to Remix - to adapt the work

Under the following conditions:
* Attribution. You must attribute the work by stating your use of KanjiVG in
  your own copyright header and linking to KanjiVG's website
  (http://kanjivg.tagaini.net)
* Share Alike. If you alter, transform, or build upon this work, you may
  distribute the resulting work only under the same or similar license to this
  one.

See http://creativecommons.org/licenses/by-sa/3.0/ for more details.
-->
<!DOCTYPE svg PUBLIC "-//W3C//DTD SVG 1.0//EN" "http://www.w3.org/TR/2001/REC-SVG-20010904/DTD/svg10.dtd" [
<!ATTLIST g
xmlns:kvg CDATA #FIXED "http://kanjivg.tagaini.net"
kvg:element CDATA #IMPLIED
kvg:variant CDATA #IMPLIED
kvg:partial CDATA #IMPLIED
kvg:original CDATA #IMPLIED
kvg:part CDATA #IMPLIED
kvg:number CDATA #IMPLIED
kvg:tradForm CDATA #IMPLIED
kvg:radicalForm CDATA #IMPLIED
kvg:position CDATA #IMPLIED
kvg:radical CDATA #IMPLIED
kvg:phon CDATA #IMPLIED >
<!ATTLIST path
xmlns:kvg CDATA #FIXED "http://kanjivg.tagaini.net"
kvg:type CDATA #IMPLIED >
]>
<svg xmlns="http://www.w3.org/2000/svg" width="109" height="109" viewBox="0 0 109 109" onclick="this.querySelectorAll('path').forEach(p=><style>
svg { cursor: pointer; }
svg path { fill: none; stroke: currentColor; stroke-width: 3; stroke-linecap: round;
stroke-dasharray: 200; stroke-dashoffset: 200; animation: draw 1.2s forwards; }
@keyframes draw { to { stroke-dashoffset: 0; } }
svg path[id$="-s1"] { animation-delay: 0.00s; }
svg path[id$="-s2"] { animation-delay: 0.80s; }
svg path[id$="-s3"] { animation-delay: 1.60s; }
svg path[id$="-s4"] { animation-delay: 2.40s; }
svg path[id$="-s5"] { animation-delay: 3.20s; }
svg path[id$="-s6"] { animation-delay: 4.00s; }
svg path[id$="-s7"] { animation-delay: 4.80s; }
svg path[id$="-s8"] { animation-delay: 5.60s; }
svg path[id$="-s9"] { animation-delay: 6.40s; }</style>{p.style.animation='none';void p.offsetWidth;p.style.animation=''});">
<g id="kvg:StrokePaths_04fc2" style="fill:none;stroke:#000000;stroke-width:3;stroke-linecap:round;stroke-linejoin:round;">
<g id="kvg:04fc2" kvg:element="係">
	<g id="kvg:04fc2-g1" kvg:element="亻" kvg:variant="true" kvg:original="人" kvg:position="left" kvg:radical="general">
		<path id="kvg:04fc2-s1" kvg:type="㇒" d="M34.5,16.5c0.25,2.03-0.26,4.62-0.87,6.44C29.75,34.56,23,47.02,11,60.5"/>
		<path id="kvg:04fc2-s2" kvg:type="㇑" d="M26.78,42.75c0.84,1.12,1,3.02,0.99,4.25c-0.04,10.67-0.21,31.35-0.26,42.38c-0.01,1.97-0.01,3.63-0.01,4.88"/>
	</g>
	<g id="kvg:04fc2-g2" kvg:element="系" kvg:position="right" kvg:phon="系">
		<g id="kvg:04fc2-g3" kvg:element="丿" kvg:position="top">
			<path id="kvg:04fc2-s3" kvg:type="㇒" d="M82.45,13.77c-0.2,1.29-0.97,2.23-1.84,2.77c-4.46,2.75-16.11,7.71-34.8,10.27"/>
		</g>
		<g id="kvg:04fc2-g4" kvg:element="糸" kvg:position="bottom">
			<path id="kvg:04fc2-s4" kvg:type="㇜" d="M63.62,26.13c0.25,1.5-0.06,2.59-0.94,3.73c-3.19,4.17-9.08,9.79-13.12,13.18c-1.44,1.21-1.44,2.21,0.5,2.85c3.92,1.3,6.06,2.23,11.93,5.36"/>
			<path id="kvg:04fc2-s5" kvg:type="㇜" d="M80.75,31.22c0,1.41-0.59,2.62-1.25,3.35c-8.25,9.18-16.38,17.18-30,29.08c-1.6,1.4-1,3.05,1,2.63c8.36-1.75,24.62-5.41,36-7.97"/>
			<path id="kvg:04fc2-s6" kvg:type="㇔" d="M80.5,49.88c3.97,2.99,10.26,12.27,11.25,16.92"/>
			<path id="kvg:04fc2-s7" kvg:type="㇑" d="M67.3,65.66c1.02,1.02,1.35,2.21,1.35,3.7c0,5.86-0.01,15.15-0.02,21.27c0,2.9-0.01,5.1-0.01,5.88"/>
			<path id="kvg:04fc2-s8" kvg:type="㇒" d="M52.02,76.09c0.48,1.09,0.48,2.14-0.21,3.36c-2.31,4.03-7.62,10.98-12.56,14.65"/>
			<path id="kvg:04fc2-s9" kvg:type="㇔" d="M83.25,74.92c3.99,3.63,10.83,13.3,12.25,16.92"/>
		</g>
	</g>
</g>
</g>
<g id="kvg:StrokeNumbers_04fc2" style="font-size:8;fill:#808080">
	
	
	
	
	
	
	
	
	
</g>
</svg>
