<?xml version="1.0" encoding="UTF-8"?>
<!--
Copyright (C) 2009/2010/2011 Ulrich Apel.
This work is distributed under the conditions of the Creative Commons
Attribution-Share Alike 3.0 Licence. This means you are free:
* to Share - to copy, distribute and transmit the work
* to Remix - to adapt the work

Under the following conditions:
* Attribution. You must attribute the work by stating your use of KanjiVG in
  your own copyright header and linking to KanjiVG's website
  (http://kanjivg.tagaini.net)
* Share Alike. If you alter, transform, or build upon this work, you may
  distribute the resulting work only under the same or similar license to this
  one.

See http://creativecommons.org/licenses/by-sa/3.0/ for more details.
-->
<!DOCTYPE svg PUBLIC "-//W3C//DTD SVG 1.0//EN" "http://www.w3.org/TR/2001/REC-SVG-20010904/DTD/svg10.dtd" [
<!ATTLIST g
xmlns:kvg CDATA #FIXED "http://kanjivg.tagaini.net"
kvg:element CDATA #IMPLIED
kvg:variant CDATA #IMPLIED
kvg:partial CDATA #IMPLIED
kvg:original CDATA #IMPLIED
kvg:part CDATA #IMPLIED
kvg:number CDATA #IMPLIED
kvg:tradForm CDATA #IMPLIED
kvg:radicalForm CDATA #IMPLIED
kvg:position CDATA #IMPLIED
kvg:radical CDATA #IMPLIED
kvg:phon CDATA #IMPLIED >
<!ATTLIST path
xmlns:kvg CDATA #FIXED "http://kanjivg.tagaini.net"
kvg:type CDATA #IMPLIED >
]>
<svg xmlns="http://www.w3.org/2000/svg" width="109" height="109" viewBox="0 0 109 109" onclick="var s=this;s.querySelectorAll('path').forEach(function(p){p.style.animation='none';});setTimeout(function(){s.querySelectorAll('path').forEach(function(p){p.style.animation='';});},20);"><style>
svg { cursor: pointer; }
svg path { fill: none; stroke: currentColor; stroke-width: 3; stroke-linecap: round;
stroke-dasharray: 200; stroke-dashoffset: 200; animation: draw 1.2s forwards; }
@keyframes draw { to { stroke-dashoffset: 0; } }
svg path[id$="-s1"] { animation-delay: 0.00s; }
svg path[id$="-s2"] { animation-delay: 0.80s; }
svg path[id$="-s3"] { animation-delay: 1.60s; }
svg path[id$="-s4"] { animation-delay: 2.40s; }
svg path[id$="-s5"] { animation-delay: 3.20s; }
svg path[id$="-s6"] { animation-delay: 4.00s; }
svg path[id$="-s7"] { animation-delay: 4.80s; }
svg path[id$="-s8"] { animation-delay: 5.60s; }
svg path[id$="-s9"] { animation-delay: 6.40s; }</style>
<g id="kvg:StrokePaths_0754c" style="fill:none;stroke:#000000;stroke-width:3;stroke-linecap:round;stroke-linejoin:round;">
<g id="kvg:0754c" kvg:element="界">
	<g id="kvg:0754c-g1" kvg:element="田" kvg:position="top" kvg:radical="general">
		<path id="kvg:0754c-s1" kvg:type="㇑" d="M27.97,16.22c0.78,0.78,1.28,1.28,1.56,2.62c1.41,6.75,2.76,14.26,3.69,22.78c0.11,0.98,0.21,1.94,0.31,2.86"/>
		<path id="kvg:0754c-s2" kvg:type="㇕a" d="M30.39,17.55c13.86-1.55,33.36-3.3,44.49-4.27c3.51-0.31,5.75,1.74,5.34,4.26C79,25.12,77.58,31.6,76.16,38.79c-0.21,1.08-0.41,1.84-0.91,3.24"/>
		<path id="kvg:0754c-s3" kvg:type="㇑a" d="M52.75,16.75C53.88,18,54.12,19,54.11,20.5c-0.02,6.11,0.23,17.81,0.23,19.78"/>
		<path id="kvg:0754c-s4" kvg:type="㇐a" d="M32.7,29.78c14.43-1.53,36.97-3.25,44.65-3.69"/>
		<path id="kvg:0754c-s5" kvg:type="㇐a" d="M34.45,42.92c11.17-1.04,25.3-2.42,40.15-3.17"/>
	</g>
	<g id="kvg:0754c-g2" kvg:element="介" kvg:position="bottom" kvg:phon="介">
		<g id="kvg:0754c-g3" kvg:element="人" kvg:position="top">
			<path id="kvg:0754c-s6" kvg:type="㇒" d="M46.88,43.62c0,1.25-0.48,2.58-1.41,3.97c-4.22,6.29-15.01,17.67-28.72,25.59"/>
			<path id="kvg:0754c-s7" kvg:type="㇏" d="M59.75,43.02c6.75,5.85,19.27,17.27,27.99,23.5c2.76,1.97,5.41,3.6,8.77,4.31"/>
		</g>
		<g id="kvg:0754c-g4" kvg:position="bottom">
			<g id="kvg:0754c-g5" kvg:element="丿">
				<path id="kvg:0754c-s8" kvg:type="㇒" d="M41.64,61.93c0.57,0.68,0.95,1.78,0.96,3.03c0.15,11.92,0.36,25.81-11.85,33.67"/>
			</g>
			<g id="kvg:0754c-g6" kvg:element="丨">
				<path id="kvg:0754c-s9" kvg:type="㇑" d="M65.39,58.85c1,1,1.29,2.15,1.29,3.56c0,3.59,0.05,21.23-0.08,31.47c-0.03,2.18-0.06,3.86-0.09,4.72"/>
			</g>
		</g>
	</g>
</g>
</g>
<g id="kvg:StrokeNumbers_0754c" style="font-size:8;fill:#808080">
	
	
	
	
	
	
	
	
	
</g>
</svg>
